<svg viewBox="0 0 24 24" xmlns="http://www.w3.org/2000/svg"><path d="m13.4 4.727a.251.251 0 0 0 .2.265 1.089 1.089 0 0 1 .824 1.108v1.4a1.244 1.244 0 0 0 1.244 1.244 1.244 1.244 0 0 0 1.245-1.244v-3.525a1.494 1.494 0 0 0 -1.5-1.494h-1.724a.246.246 0 0 0 -.177.074.249.249 0 0 0 -.073.177c.002.473.001 1.492-.039 1.995z"/><path d="m8.954 21.262a1.244 1.244 0 0 0 -1.244-1.244h-4.226a1.073 1.073 0 0 1 -1-1.136v-12.782a1.086 1.086 0 0 1 .842-1.115.25.25 0 0 0 .2-.258c-.039-.766-.051-1.6-.055-2a.25.25 0 0 0 -.25-.247h-1.721a1.494 1.494 0 0 0 -1.5 1.495v17.037a1.493 1.493 0 0 0 1.494 1.493h6.216a1.244 1.244 0 0 0 1.244-1.243z"/><path d="m11.937 4.472v-1.988a.5.5 0 0 0 -.5-.5h-.758a.251.251 0 0 1 -.249-.222 1.989 1.989 0 0 0 -3.953 0 .249.249 0 0 1 -.249.222h-.755a.5.5 0 0 0 -.5.5v1.988a.5.5 0 0 0 .5.5h5.967a.5.5 0 0 0 .497-.5z"/><path d="m19.02 17.269h-3.979a.75.75 0 1 0 0 1.5h3.979a.75.75 0 1 0 0-1.5z"/><path d="m14.291 14.54a.75.75 0 0 0 .75.749h2.486a.75.75 0 1 0 0-1.5h-2.486a.75.75 0 0 0 -.75.751z"/><path d="m23.5 13.46a1.991 1.991 0 0 0 -.584-1.409l-1.406-1.4a1.994 1.994 0 0 0 -1.41-.584h-7.606a1.993 1.993 0 0 0 -1.994 1.988v9.945a2 2 0 0 0 2 2h9a2 2 0 0 0 2-2zm-11-.4a1 1 0 0 1 1-1h6.187a1 1 0 0 1 .707.292l.818.816a1 1 0 0 1 .293.708v7.124a1 1 0 0 1 -1 1h-7a1 1 0 0 1 -1-1z"/></svg>
